<?xml version="1.0" standalone="no"?>
<!DOCTYPE svg PUBLIC "-//W3C//DTD SVG 20010904//EN"
 "http://www.w3.org/TR/2001/REC-SVG-20010904/DTD/svg10.dtd">
<svg version="1.0" xmlns="http://www.w3.org/2000/svg"
 width="807.000000pt" height="211.000000pt" viewBox="0 0 807.000000 211.000000"
 preserveAspectRatio="xMidYMid meet">

<g transform="translate(0.000000,211.000000) scale(0.100000,-0.100000)"
fill="#000000" stroke="none">
<path d="M220 1727 c-24 -12 -25 -16 -28 -126 -2 -95 0 -117 14 -132 16 -18
38 -19 381 -19 l364 0 -40 -53 c-22 -30 -150 -206 -285 -391 l-246 -337 15
-35 14 -34 -39 0 c-39 0 -42 -3 -110 -95 -55 -74 -70 -102 -70 -129 0 -68 -24
-66 640 -66 l597 0 21 23 c20 21 22 34 22 123 0 155 33 143 -413 146 l-368 3
386 529 c405 555 401 548 359 590 -14 14 -82 16 -602 16 -453 0 -593 -3 -612
-13z m1211 -31 c14 -29 57 35 -395 -584 l-360 -492 -127 0 c-119 0 -129 1
-139 21 -7 12 -8 25 -2 32 67 89 572 787 572 791 0 3 -168 6 -373 6 -277 0
-376 3 -385 12 -16 16 -16 210 0 226 9 9 157 12 605 12 l593 0 11 -24z m7
-1128 c16 -16 16 -210 0 -226 -17 -17 -1199 -17 -1216 0 -25 25 -12 63 53 151
l65 87 543 0 c409 0 546 -3 555 -12z"/>
<path d="M3620 1727 c-24 -12 -25 -16 -28 -126 -2 -103 -1 -116 17 -135 20
-21 20 -22 1 -34 -19 -12 -20 -26 -20 -552 l0 -539 22 -15 c17 -12 48 -16 118
-16 151 0 140 -26 140 326 l0 294 414 0 415 0 15 22 c12 17 16 48 16 124 0
156 37 144 -456 144 l-404 0 0 97 c0 76 -4 100 -17 115 -16 17 0 18 480 18
l496 0 15 22 c12 17 16 48 16 124 0 159 65 144 -634 144 -448 0 -587 -3 -606
-13z m1202 -24 c15 -13 18 -32 18 -113 0 -61 -4 -100 -12 -108 -17 -17 -1189
-17 -1206 0 -16 16 -16 210 0 226 9 9 155 12 597 12 530 0 586 -2 603 -17z
m-980 -290 c15 -13 18 -32 18 -115 l0 -98 407 0 c364 0 408 -2 425 -17 15 -13
18 -32 18 -113 0 -61 -4 -100 -12 -108 -9 -9 -117 -12 -425 -12 l-413 0 0
-292 c0 -257 -2 -294 -17 -310 -13 -15 -32 -18 -113 -18 -61 0 -100 4 -108 12
-17 17 -17 1059 0 1076 8 8 46 12 107 12 74 0 98 -4 113 -17z"/>
<path d="M6547 1722 c-16 -17 -17 -79 -17 -700 l0 -681 22 -15 c17 -12 48 -16
118 -16 151 0 140 -26 140 324 l0 293 158 7 c86 3 168 7 181 9 22 2 43 -28
208 -298 101 -165 190 -308 198 -317 13 -15 33 -18 139 -18 118 0 126 1 140
22 9 12 16 30 16 39 0 10 -92 169 -205 353 -113 185 -205 339 -205 342 0 3 27
30 60 60 77 72 144 173 180 273 34 93 55 237 42 296 l-8 40 -575 3 c-548 2
-577 1 -592 -16z m1156 -101 c-4 -181 -68 -326 -204 -464 l-87 -87 209 -343
c115 -188 209 -349 209 -358 0 -33 -22 -39 -141 -39 l-117 0 -194 318 c-176
286 -197 317 -219 314 -13 -1 -99 -5 -191 -9 l-168 -6 0 -290 c0 -256 -2 -293
-17 -309 -13 -15 -32 -18 -113 -18 -61 0 -100 4 -108 12 -17 17 -17 1349 0
1366 9 9 146 12 578 10 l565 -3 -2 -94z"/>
<path d="M6800 1335 l0 -135 124 0 c68 0 146 4 175 10 112 21 226 99 290 198
17 27 31 52 31 55 0 4 -139 7 -310 7 l-310 0 0 -135z m579 93 c-30 -56 -121
-136 -192 -169 -70 -33 -76 -34 -224 -37 l-153 -4 0 116 0 116 290 0 291 0
-12 -22z"/>
<path d="M2519 1720 c-15 -9 -149 -239 -149 -255 0 -8 581 -1061 617 -1117
l23 -38 139 0 c139 0 140 0 160 26 12 15 21 30 21 35 0 15 -733 1334 -748
1347 -19 14 -41 15 -63 2z m299 -455 c526 -950 495 -891 480 -914 -12 -20 -22
-21 -148 -21 l-135 0 -310 561 c-170 309 -310 567 -310 573 0 6 29 64 64 129
58 107 67 118 90 115 22 -3 55 -57 269 -443z"/>
<path d="M5529 1720 c-15 -9 -149 -239 -149 -255 0 -8 581 -1061 617 -1117
l23 -38 139 0 c139 0 140 0 160 26 12 15 21 30 21 35 0 15 -733 1334 -748
1347 -19 14 -41 15 -63 2z m299 -455 c526 -950 495 -891 480 -914 -12 -20 -22
-21 -148 -21 l-135 0 -310 561 c-170 309 -310 567 -310 573 0 6 29 64 64 129
58 107 67 118 90 115 22 -3 55 -57 269 -443z"/>
<path d="M2296 1338 c-130 -227 -526 -955 -526 -968 0 -10 8 -27 18 -39 16
-21 24 -22 161 -19 l143 3 219 395 c120 217 219 402 219 410 0 9 -30 71 -66
138 l-66 122 -39 0 c-34 0 -40 -4 -63 -42z m151 -88 c34 -63 63 -122 62 -130
0 -8 -96 -188 -214 -400 l-213 -385 -132 -3 c-135 -3 -160 3 -160 36 0 14 465
865 527 965 39 62 56 50 130 -83z"/>
<path d="M5306 1338 c-130 -227 -526 -955 -526 -968 0 -10 8 -27 18 -39 16
-21 24 -22 161 -19 l143 3 219 395 c120 217 219 402 219 410 0 9 -30 71 -66
138 l-66 122 -39 0 c-34 0 -40 -4 -63 -42z m151 -88 c34 -63 63 -122 62 -130
0 -8 -96 -188 -214 -400 l-213 -385 -132 -3 c-135 -3 -160 3 -160 36 0 14 465
865 527 965 39 62 56 50 130 -83z"/>
</g>
</svg>
