<?xml version="1.0" standalone="no"?>
<!DOCTYPE svg PUBLIC "-//W3C//DTD SVG 20010904//EN"
 "http://www.w3.org/TR/2001/REC-SVG-20010904/DTD/svg10.dtd">
<svg version="1.0" xmlns="http://www.w3.org/2000/svg"
 width="807.000000pt" height="211.000000pt" viewBox="0 0 807.000000 211.000000"
 preserveAspectRatio="xMidYMid meet">

<g transform="translate(0.000000,211.000000) scale(0.100000,-0.100000)"
fill="#000000" stroke="none">
<path d="M6562 1708 c-9 -9 -12 -175 -12 -685 0 -654 1 -673 19 -683 28 -14
194 -13 209 2 9 9 12 91 12 309 l0 296 158 6 c86 4 175 9 197 12 l40 6 195
-320 195 -321 118 0 c178 0 183 -25 -72 393 l-212 346 83 83 c142 142 198 266
206 456 l5 112 -565 0 c-425 0 -567 -3 -576 -12z m858 -241 c0 -22 -55 -102
-101 -146 -24 -23 -78 -59 -118 -79 l-75 -37 -168 -4 -168 -3 0 134 c0 74 3
138 7 141 3 4 145 7 315 7 247 0 308 -3 308 -13z"/>
<path d="M222 1698 c-17 -17 -16 -202 1 -217 10 -7 132 -12 389 -13 l376 -3
-292 -400 c-258 -353 -291 -404 -283 -423 10 -21 16 -22 136 -22 l126 1 383
525 c329 452 381 528 372 545 -10 18 -26 19 -603 19 -448 0 -596 -3 -605 -12z"/>
<path d="M3622 1698 c-16 -16 -16 -200 0 -216 9 -9 156 -12 598 -12 556 0 588
1 603 18 21 23 25 190 5 210 -17 17 -1189 17 -1206 0z"/>
<path d="M2459 1588 c-34 -62 -63 -115 -65 -118 -1 -3 138 -260 310 -570 l312
-565 134 0 c122 0 134 2 145 20 12 18 -25 89 -353 682 -342 618 -369 663 -394
663 -23 0 -33 -13 -89 -112z"/>
<path d="M5469 1588 c-34 -62 -63 -115 -65 -118 -1 -3 138 -260 310 -570 l312
-565 134 0 c122 0 134 2 145 20 12 18 -25 89 -353 682 -342 618 -369 663 -394
663 -23 0 -33 -13 -89 -112z"/>
<path d="M3622 1418 c-9 -9 -12 -143 -12 -540 0 -511 1 -528 19 -538 28 -14
194 -13 209 2 9 9 12 92 12 310 l0 298 418 0 c312 0 421 3 430 12 17 17 16
202 -1 217 -10 7 -142 12 -428 13 l-414 3 -3 104 c-1 58 -8 111 -14 118 -14
17 -199 18 -216 1z"/>
<path d="M2061 868 c-240 -433 -271 -495 -262 -515 10 -22 14 -23 144 -23
l133 0 212 383 c116 210 214 389 217 398 4 9 -20 63 -57 132 -55 102 -66 117
-89 117 -23 0 -48 -40 -298 -492z"/>
<path d="M5071 868 c-240 -433 -271 -495 -262 -515 10 -22 14 -23 144 -23
l133 0 212 383 c116 210 214 389 217 398 4 9 -20 63 -57 132 -55 102 -66 117
-89 117 -23 0 -48 -40 -298 -492z"/>
<path d="M276 490 c-69 -95 -81 -132 -47 -150 13 -6 220 -10 604 -10 553 0
585 1 600 18 26 28 24 192 -1 215 -17 15 -70 17 -554 17 l-536 0 -66 -90z"/>
</g>
</svg>
